<?xml version="1.0" encoding="UTF-8" standalone="no"?>
<svg xmlns:dc="http://purl.org/dc/elements/1.1/" xmlns:cc="http://creativecommons.org/ns#"
   xmlns:rdf="http://www.w3.org/1999/02/22-rdf-syntax-ns#" xmlns:svg="http://www.w3.org/2000/svg"
   xmlns="http://www.w3.org/2000/svg" xmlns:sodipodi="http://sodipodi.sourceforge.net/DTD/sodipodi-0.dtd"
   xmlns:inkscape="http://www.inkscape.org/namespaces/inkscape" sodipodi:docname="test1_opt.svg"
   inkscape:version="1.0 (4035a4fb49, 2020-05-01)" id="svg1721" version="1.1" viewBox="0 0 79.374998 79.375002"
   height="79.375mm" width="79.375mm">
   <defs id="defs1715">
      <clipPath id="clipPath1020">
         <path d="m 139.76,84.81 h 9.561 v -9.5607 h -9.561 z" id="path25" />
      </clipPath>
      <clipPath id="clipPath1036">
         <path d="m 136.9,87.673 h 15.287 V 72.386 H 136.9 Z" id="path28" />
      </clipPath>
      <clipPath id="clipPath1052">
         <path d="m 143.45,81.118 h 2.177 v -2.1771 h -2.177 z" id="path31" />
      </clipPath>
   </defs>
   <sodipodi:namedview inkscape:guide-bbox="true" showguides="true" inkscape:window-maximized="1" inkscape:window-y="-8"
      inkscape:window-x="-8" inkscape:window-height="1057" inkscape:window-width="1856" units="mm" showgrid="false"
      inkscape:document-rotation="0" inkscape:current-layer="layer1" inkscape:document-units="mm"
      inkscape:cy="176.14096" inkscape:cx="197.15376" inkscape:zoom="1.979899" inkscape:pageshadow="2"
      inkscape:pageopacity="0.0" borderopacity="1.0" bordercolor="#666666" pagecolor="#ffffff" id="base">
      <sodipodi:guide id="guide2341" orientation="0,-1" position="42.374918,39.987894" />
      <sodipodi:guide id="guide2345" orientation="1,0" position="39.646159,39.987894" />
   </sodipodi:namedview>
   <metadata id="metadata1718">
      <rdf:RDF>
         <cc:Work rdf:about="">
            <dc:format>image/svg+xml</dc:format>
            <dc:type rdf:resource="http://purl.org/dc/dcmitype/StillImage" />
            <dc:title></dc:title>
         </cc:Work>
      </rdf:RDF>
   </metadata>
   <g id="layer1" inkscape:groupmode="layer" inkscape:label="レイヤー 1">
      <g transform="matrix(3.0716791,0,0,-3.0716791,40.562625,9.7300568)" id="g38">
         <path d="m 0,0 -0.639,0.001 -0.007,-3.386 0.639,-0.002 z" style="fill:#f8e991" id="path36" />
      </g>
      <g transform="matrix(3.0716791,0,0,-3.0716791,37.183777,20.26592)" id="g42">
         <path d="M 0,0 -0.581,3.336 -1.211,3.227 -0.63,-0.11 Z" style="fill:#f8e991" id="path40" />
      </g>
      <g transform="matrix(3.0716791,0,0,-3.0716791,33.897079,20.984694)" id="g46">
         <path d="M 0,0 -1.152,3.185 -1.753,2.967 -0.602,-0.217 Z" style="fill:#f8e991" id="path44" />
      </g>
      <g transform="matrix(3.0716791,0,0,-3.0716791,30.794689,22.25944)" id="g50">
         <path d="M 0,0 -1.687,2.937 -2.241,2.618 -0.554,-0.318 Z" style="fill:#f8e991" id="path48" />
      </g>
      <g transform="matrix(3.0716791,0,0,-3.0716791,27.968739,24.056373)" id="g54">
         <path d="M 0,0 -2.172,2.599 -2.662,2.189 -0.49,-0.41 Z" style="fill:#f8e991" id="path52" />
      </g>
      <g transform="matrix(3.0716791,0,0,-3.0716791,25.480686,26.317129)" id="g58">
         <path d="m 0,0 -2.591,2.182 -0.411,-0.489 2.59,-2.182 z" style="fill:#f8e991" id="path56" />
      </g>
      <g transform="matrix(3.0716791,0,0,-3.0716791,23.422663,28.977204)" id="g62">
         <path d="M 0,0 -2.93,1.699 -3.25,1.146 -0.321,-0.553 Z" style="fill:#f8e991" id="path60" />
      </g>
      <g transform="matrix(3.0716791,0,0,-3.0716791,21.856091,31.95366)" id="g66">
         <path d="M 0,0 -3.18,1.165 -3.399,0.565 -0.22,-0.6 Z" style="fill:#f8e991" id="path64" />
      </g>
      <g transform="matrix(3.0716791,0,0,-3.0716791,20.842461,35.154347)" id="g70">
         <path d="m 0,0 -3.334,0.595 -0.112,-0.629 3.334,-0.595 z" style="fill:#f8e991" id="path68" />
      </g>
      <g transform="matrix(3.0716791,0,0,-3.0716791,20.381694,38.484034)" id="g74">
         <path d="m 0,0 -3.388,0.007 -10e-4,-0.639 3.387,-0.007 z" style="fill:#f8e991" id="path72" />
      </g>
      <g transform="matrix(3.0716791,0,0,-3.0716791,20.535292,41.841393)" id="g78">
         <path d="m 0,0 -3.337,-0.581 0.11,-0.63 3.336,0.582 z" style="fill:#f8e991" id="path76" />
      </g>
      <g transform="matrix(3.0716791,0,0,-3.0716791,21.241753,45.125017)" id="g82">
         <path d="m 0,0 -3.186,-1.152 0.218,-0.601 3.185,1.152 z" style="fill:#f8e991" id="path80" />
      </g>
      <g transform="matrix(3.0716791,0,0,-3.0716791,22.531867,48.233555)" id="g86">
         <path d="m 0,0 -2.937,-1.687 0.319,-0.554 2.936,1.687 z" style="fill:#f8e991" id="path84" />
      </g>
      <g transform="matrix(3.0716791,0,0,-3.0716791,24.313433,51.074856)" id="g90">
         <path d="m 0,0 -2.599,-2.172 0.41,-0.49 2.599,2.172 z" style="fill:#f8e991" id="path88" />
      </g>
      <g transform="matrix(3.0716791,0,0,-3.0716791,26.586492,53.556778)" id="g94">
         <path d="m 0,0 -2.182,-2.59 0.489,-0.412 2.182,2.59 z" style="fill:#f8e991" id="path92" />
      </g>
      <g transform="matrix(3.0716791,0,0,-3.0716791,29.228116,55.611719)" id="g98">
         <path d="m 0,0 -1.699,-2.93 0.553,-0.32 1.699,2.93 z" style="fill:#f8e991" id="path96" />
      </g>
      <g transform="matrix(3.0716791,0,0,-3.0716791,32.207672,57.172135)" id="g102">
         <path d="M 0,0 -1.165,-3.181 -0.565,-3.4 0.6,-0.22 Z" style="fill:#f8e991" id="path100" />
      </g>
      <g transform="matrix(3.0716791,0,0,-3.0716791,33.58991,68.43292)" id="g106">
         <path d="M 0,0 0.629,-0.112 1.224,3.222 0.595,3.334 Z" style="fill:#f8e991" id="path104" />
      </g>
      <g transform="matrix(3.0716791,0,0,-3.0716791,38.719613,69.044192)" id="g110">
         <path d="M 0,0 0.639,-0.001 0.646,3.386 0.007,3.387 Z" style="fill:#f8e991" id="path108" />
      </g>
      <g transform="matrix(3.0716791,0,0,-3.0716791,42.098461,58.508329)" id="g114">
         <path d="M 0,0 0.581,-3.336 1.211,-3.227 0.63,0.11 Z" style="fill:#f8e991" id="path112" />
      </g>
      <g transform="matrix(3.0716791,0,0,-3.0716791,45.385159,57.789538)" id="g118">
         <path d="M 0,0 1.151,-3.185 1.752,-2.967 0.601,0.218 Z" style="fill:#f8e991" id="path116" />
      </g>
      <g transform="matrix(3.0716791,0,0,-3.0716791,48.487567,56.511727)" id="g122">
         <path d="M 0,0 1.687,-2.937 2.241,-2.618 0.554,0.318 Z" style="fill:#f8e991" id="path120" />
      </g>
      <g transform="matrix(3.0716791,0,0,-3.0716791,51.34421,54.714794)" id="g126">
         <path d="m 0,0 2.172,-2.6 0.49,0.411 -2.171,2.598 z" style="fill:#f8e991" id="path124" />
      </g>
      <g transform="matrix(3.0716791,0,0,-3.0716791,53.832289,52.454037)" id="g130">
         <path d="m 0,0 2.59,-2.183 0.411,0.489 -2.59,2.182 z" style="fill:#f8e991" id="path128" />
      </g>
      <g transform="matrix(3.0716791,0,0,-3.0716791,55.859601,49.797045)" id="g134">
         <path d="m 0,0 2.93,-1.699 0.321,0.553 -2.93,1.699 z" style="fill:#f8e991" id="path132" />
      </g>
      <g transform="matrix(3.0716791,0,0,-3.0716791,57.426147,46.82058)" id="g138">
         <path d="M 0,0 3.18,-1.165 3.399,-0.564 0.22,0.6 Z" style="fill:#f8e991" id="path136" />
      </g>
      <g transform="matrix(3.0716791,0,0,-3.0716791,58.439803,43.616828)" id="g142">
         <path d="M 0,0 3.334,-0.595 3.446,0.034 0.112,0.629 Z" style="fill:#f8e991" id="path140" />
      </g>
      <g transform="matrix(3.0716791,0,0,-3.0716791,58.900544,38.324315)" id="g146">
         <path d="m 0,0 -0.001,-0.639 3.387,-0.007 10e-4,0.639 z" style="fill:#f8e991" id="path144" />
      </g>
      <g transform="matrix(3.0716791,0,0,-3.0716791,58.777683,36.932856)" id="g150">
         <path d="M 0,0 3.337,0.582 3.228,1.211 -0.109,0.63 Z" style="fill:#f8e991" id="path148" />
      </g>
      <g transform="matrix(3.0716791,0,0,-3.0716791,58.040485,33.649223)" id="g154">
         <path d="M 0,0 3.186,1.152 2.968,1.753 -0.217,0.601 Z" style="fill:#f8e991" id="path152" />
      </g>
      <g transform="matrix(3.0716791,0,0,-3.0716791,56.781099,30.537612)" id="g158">
         <path d="M 0,0 2.937,1.687 2.618,2.241 -0.318,0.554 Z" style="fill:#f8e991" id="path156" />
      </g>
      <g transform="matrix(3.0716791,0,0,-3.0716791,54.968805,27.699385)" id="g162">
         <path d="M 0,0 2.599,2.171 2.189,2.662 -0.409,0.49 Z" style="fill:#f8e991" id="path160" />
      </g>
      <g transform="matrix(3.0716791,0,0,-3.0716791,52.726474,25.217462)" id="g166">
         <path d="M 0,0 2.183,2.59 1.693,3.002 -0.488,0.412 Z" style="fill:#f8e991" id="path164" />
      </g>
      <g transform="matrix(3.0716791,0,0,-3.0716791,50.054122,23.162513)" id="g170">
         <path d="M 0,0 1.7,2.929 1.147,3.25 -0.553,0.32 Z" style="fill:#f8e991" id="path168" />
      </g>
      <g transform="matrix(3.0716791,0,0,-3.0716791,47.074592,21.602096)" id="g174">
         <path d="M 0,0 1.164,3.18 0.564,3.4 -0.601,0.22 Z" style="fill:#f8e991" id="path172" />
      </g>
      <g transform="matrix(3.0716791,0,0,-3.0716791,45.723056,10.338247)" id="g178">
         <path d="m 0,0 -0.63,0.112 -0.595,-3.334 0.629,-0.112 z" style="fill:#f8e991" id="path176" />
      </g>
      <g transform="matrix(3.0716791,0,0,-3.0716791,56.16677,38.809636)" id="g182">
         <path
            d="M 0,0 1.098,0.152 -0.01,0.188 1.082,0.377 -0.026,0.375 1.059,0.603 -0.049,0.562 1.026,0.827 -0.078,0.747 0.987,1.05 -0.114,0.932 0.94,1.272 -0.156,1.115 0.886,1.492 -0.205,1.296 0.823,1.709 -0.261,1.477 0.753,1.925 -0.321,1.654 0.676,2.138 -0.389,1.83 0.591,2.348 -0.462,2.002 0.499,2.554 -0.542,2.173 0.399,2.758 -0.627,2.34 0.293,2.958 -0.718,2.505 0.18,3.154 -0.815,2.666 0.06,3.346 -0.917,2.824 -0.066,3.534 -1.025,2.978 -0.2,3.717 -1.139,3.128 -0.34,3.896 -1.257,3.274 -0.485,4.069 -1.38,3.416 -0.637,4.237 -1.508,3.553 -0.794,4.4 -1.642,3.686 -0.957,4.558 -1.778,3.814 -1.125,4.709 -1.921,3.938 -1.299,4.855 -2.066,4.056 -1.478,4.995 -2.217,4.169 -1.66,5.127 -2.371,4.277 -1.848,5.254 -2.528,4.379 -2.04,5.374 -2.689,4.476 -2.236,5.487 -2.854,4.567 -2.437,5.594 -3.021,4.653 -2.64,5.693 -3.191,4.732 -2.847,5.785 -3.365,4.806 -3.057,5.87 -3.54,4.873 -3.27,5.948 -3.718,4.934 -3.485,6.018 -3.897,4.989 -3.703,6.08 -4.079,5.038 -3.923,6.135 -4.263,5.08 -4.145,6.182 -4.447,5.116 -4.367,6.221 -4.633,5.145 -4.592,6.252 -4.819,5.168 -4.816,6.276 -5.007,5.185 -5.043,6.292 -5.194,5.194 -5.269,6.3 -5.382,5.198 -5.495,6.3 -5.57,5.194 -5.722,6.292 -5.758,5.185 l -0.19,1.091 0.003,-1.108 -0.228,1.084 0.041,-1.107 -0.265,1.076 0.08,-1.105 -0.303,1.066 0.118,-1.102 -0.34,1.055 0.156,-1.097 -0.376,1.042 0.195,-1.091 -0.412,1.029 0.232,-1.084 -0.448,1.013 0.27,-1.074 -0.483,0.997 0.309,-1.064 -0.519,0.979 0.346,-1.053 -0.553,0.961 0.382,-1.04 -0.585,0.941 0.418,-1.027 -0.618,0.92 0.453,-1.011 -0.65,0.898 0.489,-0.995 -0.68,0.875 0.522,-0.977 -0.71,0.85 0.556,-0.958 -0.739,0.825 0.589,-0.938 -0.768,0.799 0.622,-0.917 -0.796,0.771 0.654,-0.895 -0.822,0.744 0.685,-0.872 -0.848,0.714 0.715,-0.847 -0.872,0.684 0.743,-0.821 -0.894,0.653 0.771,-0.795 -0.917,0.622 0.799,-0.768 -0.938,0.589 0.825,-0.739 -0.958,0.556 0.85,-0.71 -0.977,0.522 0.875,-0.68 -0.995,0.488 0.898,-0.649 -1.012,0.453 0.92,-0.618 -1.026,0.418 0.941,-0.585 -1.041,0.381 0.962,-0.552 -1.053,0.346 0.979,-0.518 -1.064,0.308 0.997,-0.484 -1.075,0.271 1.014,-0.448 -1.084,0.232 1.028,-0.413 -1.09,0.196 1.043,-0.377 -1.098,0.157 1.055,-0.34 -1.102,0.118 1.066,-0.303 -1.105,0.08 1.075,-0.265 -1.107,0.041 1.085,-0.228 -1.109,0.002 1.092,-0.189 -1.107,-0.036 1.097,-0.152 -1.105,-0.075 1.102,-0.113 -1.102,-0.113 1.105,-0.075 -1.097,-0.151 1.107,-0.036 -1.092,-0.19 1.109,0.002 -1.085,-0.228 1.107,0.042 -1.075,-0.266 1.105,0.08 -1.066,-0.303 1.102,0.118 -1.055,-0.339 1.098,0.156 -1.043,-0.376 1.09,0.195 -1.028,-0.413 1.084,0.233 -1.014,-0.448 1.075,0.27 -0.997,-0.483 1.064,0.307 -0.979,-0.517 1.053,0.345 -0.962,-0.552 1.041,0.381 -0.941,-0.585 1.026,0.418 -0.92,-0.617 1.012,0.452 -0.898,-0.649 0.995,0.488 -0.875,-0.68 0.977,0.523 -0.85,-0.711 0.958,0.557 -0.825,-0.74 0.938,0.59 -0.799,-0.769 0.917,0.622 -0.771,-0.795 0.894,0.653 -0.743,-0.822 0.872,0.685 -0.715,-0.847 0.848,0.714 -0.685,-0.872 0.822,0.744 -0.654,-0.895 0.796,0.772 -0.622,-0.918 0.768,0.799 -0.589,-0.939 0.739,0.827 -0.556,-0.959 0.71,0.85 -0.522,-0.977 0.68,0.875 -0.489,-0.995 0.65,0.898 -0.453,-1.011 0.618,0.92 -0.418,-1.026 0.585,0.94 -0.382,-1.04 0.553,0.961 -0.346,-1.053 0.519,0.98 -0.309,-1.065 0.483,0.997 -0.27,-1.074 0.448,1.013 -0.232,-1.083 0.412,1.028 -0.195,-1.091 0.376,1.042 -0.156,-1.096 0.34,1.054 -0.118,-1.101 0.303,1.065 -0.08,-1.105 0.265,1.076 -0.041,-1.107 0.228,1.084 -0.003,-1.108 0.19,1.092 0.036,-1.108 0.152,1.098 0.075,-1.106 0.113,1.102 0.113,-1.102 0.075,1.106 0.151,-1.097 0.036,1.107 0.191,-1.092 -0.003,1.108 0.227,-1.084 -0.041,1.107 0.266,-1.076 -0.08,1.105 0.302,-1.065 -0.118,1.101 0.34,-1.054 -0.156,1.096 0.376,-1.042 -0.194,1.091 0.412,-1.028 -0.233,1.083 0.448,-1.014 -0.27,1.075 0.483,-0.997 -0.308,1.065 0.518,-0.98 -0.344,1.053 0.551,-0.961 -0.381,1.04 0.584,-0.94 -0.417,1.026 0.618,-0.92 -0.453,1.011 0.649,-0.898 -0.488,0.995 0.68,-0.875 -0.523,0.977 0.711,-0.85 -0.557,0.959 0.739,-0.827 -0.588,0.939 0.767,-0.799 -0.622,0.918 0.796,-0.772 -0.653,0.895 0.821,-0.744 -0.685,0.872 0.848,-0.714 -0.714,0.847 0.871,-0.685 -0.743,0.822 0.895,-0.653 -0.772,0.795 0.917,-0.622 -0.799,0.769 0.939,-0.59 -0.825,0.74 0.959,-0.557 -0.851,0.711 0.977,-0.523 -0.875,0.68 0.995,-0.488 -0.898,0.649 1.011,-0.452 -0.92,0.617 1.026,-0.418 -0.941,0.585 1.041,-0.381 -0.961,0.552 1.053,-0.345 -0.98,0.517 1.065,-0.307 -0.997,0.483 1.074,-0.27 -1.014,0.448 1.084,-0.233 -1.028,0.413 1.091,-0.195 -1.042,0.376 1.096,-0.156 -1.054,0.339 1.101,-0.118 -1.065,0.303 1.104,-0.08 -1.075,0.266 1.108,-0.042 -1.085,0.228 1.108,-0.002 -1.092,0.19 1.108,0.036 -1.098,0.151 1.105,0.075 -1.102,0.113 1.102,0.113 z"
            style="fill:#f8e991" id="path180" />
      </g>
      <g transform="matrix(3.0716791,0,0,-3.0716791,59.729892,39.73729)" id="g186">
         <path
            d="m 0,0 v -0.004 l -0.008,-0.22 v -0.008 l -0.015,-0.22 V -0.456 L -0.024,-0.46 -0.047,-0.679 -0.048,-0.683 v -0.004 l -0.031,-0.218 h 0.001 L -0.08,-0.913 -0.118,-1.129 -0.119,-1.134 -0.12,-1.138 -0.165,-1.353 -0.167,-1.361 -0.221,-1.574 -0.222,-1.578 -0.223,-1.583 -0.283,-1.794 -0.284,-1.798 -0.286,-1.802 -0.354,-2.011 -0.356,-2.019 -0.432,-2.226 -0.433,-2.229 -0.435,-2.233 -0.517,-2.437 -0.521,-2.445 -0.609,-2.646 -0.611,-2.649 -0.613,-2.653 -0.71,-2.851 -0.712,-2.854 -0.713,-2.858 H -0.714 L -0.816,-3.052 -0.82,-3.06 -0.931,-3.25 -0.933,-3.253 -0.935,-3.257 -1.052,-3.444 -1.054,-3.448 -1.056,-3.451 -1.179,-3.633 -1.182,-3.636 -1.184,-3.64 -1.312,-3.818 -1.315,-3.821 -1.318,-3.825 -1.453,-3.998 -1.459,-4.004 -1.6,-4.172 -1.603,-4.175 -1.605,-4.179 -1.753,-4.342 -1.756,-4.345 -1.758,-4.349 -1.759,-4.348 -1.911,-4.506 -1.914,-4.509 -1.917,-4.513 v 0.001 L -2.075,-4.666 -2.078,-4.668 -2.081,-4.671 -2.244,-4.818 -2.248,-4.821 -2.251,-4.824 -2.419,-4.965 -2.423,-4.968 -2.426,-4.97 -2.599,-5.106 -2.603,-5.108 -2.605,-5.111 -2.783,-5.24 -2.787,-5.243 -2.79,-5.245 H -2.791 L -2.973,-5.368 -2.976,-5.37 -2.979,-5.373 -3.166,-5.489 -3.17,-5.491 -3.174,-5.494 v 10e-4 l -0.19,-0.11 h 10e-4 L -3.368,-5.605 -3.371,-5.607 -3.565,-5.71 -3.569,-5.712 -3.572,-5.714 H -3.573 L -3.771,-5.81 -3.774,-5.812 -3.778,-5.814 -3.979,-5.904 -3.982,-5.905 -3.986,-5.907 -4.19,-5.989 -4.194,-5.991 -4.198,-5.992 -4.404,-6.067 -4.408,-6.069 -4.413,-6.07 -4.622,-6.138 -4.63,-6.14 -4.841,-6.201 -4.845,-6.202 -4.85,-6.204 v 10e-4 L -5.07,-6.258 -5.286,-6.304 -5.29,-6.305 H -5.294 L -5.511,-6.343 V -6.344 H -5.515 L -5.519,-6.345 -5.736,-6.375 -5.74,-6.376 H -5.745 L -5.964,-6.4 H -5.968 L -5.972,-6.401 V -6.4 l -0.219,-0.016 h -0.004 l -0.004,-10e-4 -0.22,-0.006 v -0.001 h -0.237 v 0.001 l -0.22,0.006 -0.004,10e-4 H -6.884 L -7.104,-6.4 V -6.401 L -7.107,-6.4 h -0.004 l -0.219,0.024 h -0.005 l -0.004,0.001 -0.218,0.03 -0.004,10e-4 h -0.003 v 0.001 l -0.217,0.038 h -0.004 l -0.004,10e-4 -0.215,0.046 -0.005,0.001 -0.004,10e-4 -0.213,0.053 v -10e-4 l -0.004,0.002 -0.004,0.001 -0.211,0.061 -0.008,0.002 -0.209,0.068 -0.005,0.001 -0.003,0.002 -0.207,0.075 -0.004,0.001 -0.004,0.002 -0.204,0.082 -0.003,0.002 -0.005,0.001 -0.2,0.09 -0.008,0.004 -0.197,0.096 -0.008,0.004 -0.194,0.103 -0.003,0.002 -0.004,0.002 -0.19,0.11 v -10e-4 l -0.004,0.003 -0.004,0.002 -0.186,0.116 h -10e-4 l -0.003,0.003 -0.004,0.002 -0.181,0.123 -0.004,0.002 -0.003,0.003 -0.178,0.129 h -0.001 l -0.003,0.003 -0.003,0.002 -0.173,0.136 -0.003,0.003 -0.004,0.002 h 0.001 l -0.169,0.141 -0.006,0.006 -0.164,0.147 -0.003,0.003 -0.003,0.002 -0.158,0.154 v -0.001 l -0.003,0.004 -0.003,0.003 -0.152,0.158 v -0.001 l -0.003,0.004 -0.003,0.003 -0.148,0.163 -0.003,0.003 -0.003,0.004 h 0.001 l -0.141,0.168 -0.006,0.006 -0.135,0.173 -0.003,0.003 -0.002,0.004 -0.13,0.178 -0.002,0.004 -0.002,0.003 -0.123,0.182 h -10e-4 l -0.001,0.003 -0.002,0.004 -0.117,0.187 h -10e-4 l -0.002,0.004 -0.002,0.003 -0.109,0.19 h -0.001 l -0.004,0.008 -0.102,0.194 -0.002,0.004 -0.002,0.003 -0.097,0.198 -0.002,0.004 -0.002,0.003 h 10e-4 l -0.09,0.201 -0.004,0.008 h 10e-4 l -0.083,0.204 -10e-4,0.004 -0.002,0.003 -0.075,0.207 -0.001,0.004 -0.002,0.004 -0.067,0.209 -10e-4,0.004 -0.002,0.004 -0.061,0.211 -10e-4,0.004 v 0.005 l -0.053,0.213 h -10e-4 v 0.004 l -0.002,0.004 h 10e-4 l -0.046,0.215 -10e-4,0.005 -0.001,0.004 -0.038,0.216 -0.001,0.004 v 0.004 l -0.031,0.218 v 0.004 l -0.001,0.004 -0.023,0.219 -10e-4,0.003 v 0.005 l -0.015,0.22 v 0.008 l -0.008,0.22 v 0.236 l 0.008,0.22 V 0.46 l 0.015,0.22 v 0.004 l 10e-4,0.004 0.023,0.219 0.001,0.004 v 0.004 l 0.031,0.217 v 0.005 l 0.001,0.004 0.038,0.216 0.001,0.004 10e-4,0.005 0.046,0.215 h -10e-4 l 0.002,0.003 v 0.005 h 10e-4 l 0.053,0.213 v 0.004 l 10e-4,0.005 V 1.81 l 0.061,0.211 0.002,0.004 10e-4,0.005 0.067,0.209 0.002,0.004 0.001,0.004 0.075,0.206 0.002,0.004 10e-4,0.004 0.083,0.204 h -10e-4 l 0.004,0.008 V 2.672 l 0.09,0.202 h -10e-4 l 0.002,0.003 0.002,0.004 0.097,0.198 0.002,0.004 0.002,0.003 0.102,0.194 0.004,0.008 h 0.001 l 0.109,0.19 0.002,0.003 0.002,0.004 h 10e-4 l 0.117,0.186 0.002,0.004 0.001,0.004 h 10e-4 l 0.123,0.182 0.002,0.003 0.002,0.004 0.13,0.177 0.002,0.004 0.003,0.003 0.135,0.174 0.006,0.006 0.141,0.168 h -0.001 l 0.003,0.004 0.003,0.003 0.148,0.163 0.006,0.006 0.152,0.158 0.006,0.006 0.158,0.153 0.006,0.006 0.164,0.147 0.006,0.006 V 5.051 l 0.169,0.142 h -0.001 l 0.004,0.002 0.003,0.003 0.173,0.135 0.003,0.003 0.003,0.002 h 0.001 l 0.178,0.13 0.003,0.002 0.004,0.003 0.181,0.122 0.004,0.003 0.003,0.002 h 10e-4 l 0.186,0.116 0.004,0.003 0.004,0.002 0.19,0.11 0.003,0.002 0.004,0.002 0.194,0.103 0.008,0.004 0.197,0.096 0.008,0.004 0.2,0.089 0.004,0.002 0.004,0.001 0.204,0.083 0.004,0.001 0.004,0.002 0.207,0.075 0.004,0.001 0.004,0.002 0.209,0.068 0.008,0.002 0.211,0.061 0.008,0.002 0.213,0.053 0.005,0.001 0.004,10e-4 0.215,0.046 h 0.004 l 0.004,0.001 0.217,0.038 0.003,0.001 0.004,0.001 0.218,0.03 v 0.001 h 0.009 l 0.219,0.023 h 0.004 l 0.003,0.001 0.22,0.016 h 0.008 l 0.22,0.007 h 0.004 l 0.005,0.001 V 6.651 h 0.219 v 0.001 l 0.005,-0.001 h 0.004 l 0.22,-0.007 h 0.008 l 0.219,-0.016 0.004,-0.001 h 0.004 l 0.219,-0.023 h 0.009 V 6.603 l 0.217,-0.03 0.008,-0.002 0.217,-0.038 0.004,-0.001 h 0.004 L -5.07,6.486 -4.85,6.431 -4.845,6.43 -4.841,6.429 -4.63,6.368 -4.622,6.366 -4.413,6.298 -4.409,6.296 -4.404,6.295 -4.198,6.22 -4.194,6.218 -4.19,6.217 -3.986,6.134 -3.982,6.133 -3.979,6.131 -3.778,6.042 -3.774,6.04 -3.771,6.038 -3.573,5.942 h 10e-4 L -3.569,5.94 -3.565,5.938 -3.371,5.835 -3.363,5.831 H -3.364 L -3.174,5.721 -3.17,5.719 -3.166,5.716 -2.979,5.6 -2.977,5.598 -2.973,5.595 -2.791,5.473 H -2.79 L -2.787,5.47 -2.783,5.468 -2.605,5.338 -2.603,5.336 -2.599,5.333 -2.426,5.198 -2.423,5.195 -2.419,5.193 -2.251,5.051 V 5.052 L -2.248,5.048 -2.244,5.046 -2.081,4.899 -2.075,4.893 -1.917,4.74 -1.914,4.738 -1.911,4.734 -1.759,4.576 h 10e-4 L -1.756,4.573 -1.753,4.57 -1.605,4.407 -1.603,4.403 -1.6,4.4 -1.459,4.232 -1.453,4.226 -1.318,4.052 -1.315,4.049 -1.312,4.045 -1.184,3.868 -1.182,3.864 -1.179,3.861 -1.056,3.679 -1.052,3.671 -0.935,3.485 -0.933,3.481 -0.931,3.478 -0.82,3.288 -0.816,3.28 -0.714,3.086 h 0.001 L -0.712,3.083 -0.71,3.079 -0.613,2.881 -0.611,2.877 -0.609,2.874 -0.521,2.672 V 2.673 L -0.519,2.668 -0.517,2.665 -0.435,2.461 -0.433,2.457 -0.432,2.453 -0.356,2.247 -0.354,2.239 -0.286,2.03 -0.284,2.025 -0.283,2.021 -0.223,1.81 V 1.811 L -0.222,1.806 -0.221,1.802 -0.167,1.589 -0.166,1.584 -0.165,1.581 -0.12,1.366 -0.119,1.362 -0.118,1.357 -0.08,1.141 -0.079,1.137 -0.078,1.132 H -0.079 L -0.048,0.915 V 0.911 L -0.047,0.907 -0.024,0.688 -0.023,0.684 V 0.68 L -0.008,0.46 V 0.452 L 0,0.232 V 0.004 Z m -6.521,8.077 c -4.398,0.008 -7.97,-3.549 -7.979,-7.947 -0.009,-4.397 3.549,-7.969 7.946,-7.979 4.398,-0.009 7.97,3.549 7.979,7.947 0.009,4.397 -3.549,7.969 -7.946,7.979"
            style="fill:#f8e991" id="path184" />
      </g>
      <g transform="matrix(3.0716791,0,0,-3.0716791,-404.33938,285.21052)" id="g196">
         <g id="g194">
            <g clip-path="url(#clipPath1020)" opacity="0.5" id="g192">
               <g transform="translate(148.22,81.014)" id="g190">
                  <path
                     d="m 0,0 c 0.187,-0.703 -0.229,-1.425 -0.932,-1.614 -0.703,-0.188 -1.425,0.229 -1.613,0.932 -0.188,0.703 0.229,1.425 0.931,1.614 C -0.911,1.12 -0.188,0.703 0,0 m -6.365,-0.158 c -0.515,0.515 -0.515,1.349 0,1.864 0.514,0.514 1.348,0.514 1.863,0 0.514,-0.515 0.514,-1.349 0,-1.864 -0.515,-0.514 -1.349,-0.514 -1.863,0 m 3.318,-3.57 c -0.187,-0.703 -0.91,-1.12 -1.613,-0.932 -0.702,0.189 -1.119,0.911 -0.932,1.614 0.189,0.703 0.911,1.12 1.614,0.931 0.703,-0.188 1.12,-0.91 0.931,-1.613 m -4.009,6.124 c -1.866,-1.867 -1.866,-4.894 0,-6.761 1.868,-1.867 4.894,-1.867 6.761,0 1.867,1.867 1.867,4.894 0,6.761 -1.867,1.866 -4.893,1.866 -6.761,0"
                     style="fill:#e7ba20" id="path188" />
               </g>
            </g>
         </g>
      </g>
      <g transform="matrix(3.0716791,0,0,-3.0716791,-404.33938,285.21052)" id="g206">
         <g id="g204">
            <g clip-path="url(#clipPath1036)" opacity="0.5" id="g202">
               <g transform="translate(144.54,86.673)" id="g200">
                  <path
                     d="m 0,0 c -3.663,0 -6.644,-2.98 -6.644,-6.644 0,-3.663 2.981,-6.643 6.644,-6.643 3.663,0 6.643,2.98 6.643,6.643 C 6.643,-2.98 3.663,0 0,0 m 0,-14.287 c -4.215,0 -7.644,3.429 -7.644,7.643 C -7.644,-2.429 -4.215,1 0,1 4.214,1 7.643,-2.429 7.643,-6.644 7.643,-10.858 4.214,-14.287 0,-14.287"
                     style="fill:#e7ba20" id="path198" />
               </g>
            </g>
         </g>
      </g>
      <g transform="matrix(3.0716791,0,0,-3.0716791,-404.33938,285.21052)" id="g216">
         <g id="g214">
            <g clip-path="url(#clipPath1052)" opacity="0.59" id="g212">
               <g transform="translate(145.63,80.029)" id="g210">
                  <path
                     d="m 0,0 c 0,-0.601 -0.487,-1.088 -1.088,-1.088 -0.601,0 -1.089,0.487 -1.089,1.088 0,0.601 0.488,1.089 1.089,1.089 C -0.487,1.089 0,0.601 0,0"
                     style="fill:#b3a12a" id="path208" />
               </g>
            </g>
         </g>
      </g>
      <g transform="matrix(3.0716791,0,0,-3.0716791,42.497779,39.387107)" id="g220">
         <path
            d="m 0,0 c 0,-0.513 -0.416,-0.929 -0.929,-0.929 -0.513,0 -0.929,0.416 -0.929,0.929 0,0.513 0.416,0.929 0.929,0.929 C -0.416,0.929 0,0.513 0,0"
            style="fill:#edd53c" id="path218" />
      </g>
      <g transform="matrix(3.0716791,0,0,-3.0716791,42.374919,39.387107)" id="g224">
         <path
            d="m 0,0 c 0,-0.49 -0.397,-0.888 -0.888,-0.888 -0.491,0 -0.888,0.398 -0.888,0.888 0,0.49 0.397,0.888 0.888,0.888 C -0.397,0.888 0,0.49 0,0"
            style="fill:#f8e991" id="path222" />
      </g>
      <animateTransform id="gear1" attributeName="transform" type="rotate" from="0 39.646 39.387" to="360 39.646 39.387"
         begin="0s;gear1.end" dur="5s" />
   </g>
</svg>
